<?xml version="1.0" encoding="UTF-8"?>
<svg id="Ebene_1" data-name="Ebene 1" xmlns="http://www.w3.org/2000/svg" version="1.1" viewBox="0 0 425.1968504 198.4251969">
  <defs>
    <style>
      .cls-1 {
        fill: none;
        stroke: #ffb496;
        stroke-miterlimit: 10;
      }

      .cls-2 {
        fill: #ff5e1f;
      }

      .cls-2, .cls-3, .cls-4, .cls-5 {
        stroke-width: 0px;
      }

      .cls-3 {
        fill: #ff5f1f;
      }

      .cls-4 {
        fill: #ffdfd2;
      }

      .cls-5 {
        fill: #fff;
      }
    </style>
  </defs>
  <path class="cls-2" d="M62.9210303,122.0955038c0-10.3719489,8.1315866-15.9318078,18.7498601-15.9318078,12.448105,0,18.9199418,7.5509602,18.9199418,18.58564h-10.2077343c0-4.8120899-1.492596-8.876422-8.7943148-8.9585293-4.2314719-.0850381-8.4629493,1.2433434-8.4629493,5.8882992,0,11.9495886,27.4649984,10.4569869,27.4649984,28.9575944,0,9.2928256-6.8882404,14.9347918-19.333409,14.9347918-15.1019399,0-21.6558869-8.7943148-21.6558869-18.6677584h10.2048035c.0850409,5.2284991,5.1463918,9.7062983,11.7003359,9.7062983,5.0613537,0,9.1256746-1.0761981,9.1256746-5.9733317,0-12.776534-27.7113202-9.4570401-27.7113202-28.5411965"/>
  <polygon class="cls-2" points="102.8244576 106.9117558 140.9898451 106.9117558 140.9898451 114.3776891 127.0520693 114.3776891 127.1341766 164.9090631 116.8472658 164.9090631 116.8472658 114.3776891 102.8244576 114.3776891 102.8244576 106.9117558"/>
  <path class="cls-2" d="M153.9282389,143.4188562c0,7.0524606,1.7418598,12.6944268,9.0435674,13.3571521,10.5391054.9149143,17.8378822-22.9813376,20.1632853-47.8716859l14.9347974-11.4510777.3313599.4985164c-7.8823312,6.5539386-6.9703589,27.0485949-3.9001064,44.886477l-11.6974107,12.6123195h17.5035803l-7.3838148,9.4570401h-24.2276174l8.3808476-9.4570401h4.5628373l1.9911124-2.5717305c1.4104888-8.7972456-.7448382-16.4303242-.7448382-25.1425317,0-3.4837084,0-6.304686.0821073-8.545051-3.6508538,22.4007195-12.8586357,47.2939874-26.0515733,47.2939874-6.7210951,0-8.3808476-7.4688585-8.3808476-13.4421902,0-13.9377702,7.9644385-28.6233094,14.9347974-41.2356232-3.650865,4.1493702-7.4688641,8.1315838-11.2839436,8.1315838-3.9822137,0-5.8091115-5.1463806-5.8091115-8.9614601,0-5.8912188,1.3283815-11.2018251,2.6567742-13.6064047l.1642145.3313599c-2.6538434,6.0554445,1.4104888,8.7122075,5.0613425,8.7122075,11.0346798,0,15.18405-4.3165155,20.081178-4.3165155v.4985164c-10.2898416,0-20.4125379,32.6084538-20.4125379,40.8221505"/>
  <polygon class="cls-2" points="244.0278658 162.4194399 244.0278658 106.8296486 254.7311858 106.8296486 254.068466 164.9090631 234.9842984 164.9090631 212.9970461 110.6447169 212.4164336 164.9090631 202.3758334 164.9090631 202.3758334 106.8296486 221.5421083 106.8296486 244.0278658 162.4194399"/>
  <g>
    <path class="cls-2" d="M285.7526314,133.8770689c0-17.5886184-3.7329722-19.6647689-10.0376694-19.5826616h-6.058353v43.1475536h1.8268755c13.4392594.1642145,14.2691468-15.2690825,14.2691468-23.564892M259.4517943,106.828474h17.0930551c12.278012,0,19.4155051,5.2284991,19.4155051,24.2276174,0,15.2661517-4.5628373,34.0189482-24.561908,33.8517972h-11.9466522v-58.0794146Z"/>
    <path class="cls-2" d="M342.0857788,103.7588144c1.4104999,2.240365,2.8209775,7.383826,2.8209775,12.943685,0,3.7329611-.9119724,8.6271582-4.3986228,8.6271582-6.2225899,0-9.7883944-17.2572585-21.3245102-17.2572585-2.8180467,0-11.6152923,1.2462742-8.9585293,11.7824376,4.3135847,17.2572697,25.8873475,5.6419774,25.8873475,12.5302178,0,4.3956864-8.4629325,1.492596-12.69441,1.4104888-8.547993-.1671453-13.028723,9.4570401-8.131595,17.1751568,9.0435674,14.1870228,24.8903371,15.4303662,28.7083474,7.0495242,4.3135847-9.4570401-14.1049099-11.6974051-15.3511953-7.2987824-.3313599,1.3254507-.2492526,2.0732197,1.3283927,3.8971812l-.4164203.2492582c-4.395692-4.4807301-8.7943148-12.5272814-6.4718425-15.4303718,5.6419774-7.137493,27.2157626,4.2314774,21.9051451,18.7498657-5.2255571,14.1870228-46.8775895,12.0316958-46.8775895-9.9555509,0-17.5065223,25.5530792-15.8467697,30.2830619-15.8467697v-.4985164c-4.3135847-.1671453-29.3710672-1.1612361-29.3710672-16.4273822,0-4.2344083,1.9090052-12.3630725,11.1167871-12.3630725,11.6182231-.0850381,18.0900656,10.4540673,26.3037455,10.4540673,3.8150795,0,7.3838372-5.3956444,5.3106175-9.7092291l.3313599-.0821073Z"/>
    <path class="cls-2" d="M49.5084558,32.0158108l-6.8032024,4.5628373c-2.8180516,2.3224723-2.9030918,4.9763045-2.9030918,6.8823788,0,17.0050751,40.646203,22.3977887,40.646203,39.5670783,0,12.7765284-22.8933631,20.1574236-33.1802739,20.1574236-12.6093859,0-25.0516236-12.4422378-15.5945835-23.9695612l17.5856932-9.29282.5806181.6627197c-6.6360556,3.1523486-9.5391474,7.3838148-9.5391474,13.1078995,0,15.7588009,31.3563152,21.4007559,31.3563152,5.888288,0-21.3186598-39.983479-17.667806-39.983479-40.5611691,0-7.4659333,12.7736004-14.1840976,18.1663112-17.7528329,7.7151831,17.0871712,19.826061,18.1663,22.1485333,3.1523374h.5806181l-3.2344558,21.5679124c-6.8032024,0-14.4333474-1.0791289-18.4155666-6.8853096-2.7388758-4.0643209-4.1493674-11.0346686-1.4104916-17.0871823"/>
    <path class="cls-2" d="M99.0360685,59.6368187c5.5569225,0,9.5391474-1.2433434,9.5391474-7.5480406,0-6.2225899-3.9822248-7.5480294-9.5391474-7.4659221h-6.5539497v15.0139627h6.5539497ZM92.4000115,94.808205h-10.1197655v-58.0647606h16.7558225c10.28398,0,19.7410201,3.1523598,19.7410201,14.8497593,0,10.6974471-7.8794004,15.9259462-19.7410201,15.9259462h-6.5539497l-.0821073,27.2890551Z"/>
  </g>
  <polygon class="cls-2" points="131.9720733 87.3434462 166.9763142 87.3434462 166.9763142 94.8093795 121.8523078 94.8093795 121.8523078 36.7446301 166.7270616 36.7446301 166.7270616 44.2076214 132.0541805 44.2076214 132.0541805 62.0425728 166.7270616 62.0425728 166.7270616 69.5084949 132.0541805 69.5084949 131.9720733 87.3434462"/>
  <g>
    <path class="cls-2" d="M167.9768595,50.7621529l13.1900068-13.9348338,47.5285748-.0821073c2.7388702,1.161225,4.8120899,4.0643209,4.8120899,6.2196479,0,4.4807301-3.5658045,7.4630025-7.380884,10.7003891-9.7883944,6.9674169-19.4125854,11.6944687-21.9813795,11.6944687l-6.8032024.0850381c1.3254507,10.7824852,19.4946927,27.2919859,28.7845819,20.9843691,3.8150795-2.5688053,5.8882992-6.0525137,7.630159-8.8734912l.5806125.3313599c-2.240365,3.7329611-4.6449446,7.0495242-7.4659445,9.4570345-4.0643097,3.4837196-14.1840864,9.3719965-16.0930803,9.3719965-7.2137499,0-20.2395309-16.2573061-20.2395309-24.0545992,0-1.9911012,8.9585293-12.2750812,13.7706192-16.4244514,2.1582578,0,3.0702413.0850381,5.143461,0,9.2898892,0,9.9526089.9119835,13.272114-1.6597525,5.0584117-3.8971756-2.240365-8.6271582-6.5539497-8.3779056l-26.5442281.1642145-2.8209775,2.4896176c.1671453,11.3660397,7.1345622,43.8835938-9.4570457,45.9538827h-14.1811556l.1642145-.7448382,7.2166695-.1642145c9.9555509,0,7.9644385-31.6876779,7.383826-38.3237349l10.6182707-9.2107127-8.7943036.0850381c-7.4659333.0821073-7.9644497,1.1612361-11.1167871,4.8120899l-.6627309-.4985052Z"/>
    <path class="cls-2" d="M252.2966941,100.21998l-13.9348338-13.1900068-.0821073-47.5285748c1.161225-2.7388926,4.0643321-4.8121123,6.2196591-4.8121123,4.4807301,0,7.4629913,3.5658269,10.7003668,7.3809064,6.9674169,9.7883944,11.6944687,19.4125854,11.6944687,21.9813795l.0850381,6.8032024c10.7824964-1.3254507,27.2920082-19.4946927,20.9843803-28.7845819-2.5687941-3.8150795-6.0525137-5.8882992-8.8734912-7.6301366l.3313599-.5806349c3.7329722,2.240365,7.0495242,4.6449446,9.4570345,7.4659333,3.4837196,4.0643209,9.3719965,14.1840976,9.3719965,16.0930915,0,7.2137499-16.2573061,20.2395309-24.054588,20.2395309-1.9911124,0-12.2751036-8.9585293-16.4244738-13.7706192,0-2.1582578.0850604-3.0702413,0-5.143461,0-9.2898892.9119947-9.9526089-1.6597302-13.272114-3.8971868-5.0584117-8.6271694,2.240365-8.3779168,6.5539497l.1642145,26.5442281,2.4896176,2.8209775c11.3660397-.1671453,43.883605-7.1345622,45.9538715,9.4570457v14.1811556l-.744827-.1642145-.1642145-7.2166695c0-9.9555509-31.6876779-7.9644385-38.3237349-7.3808952l-9.2107127-10.6182707.0850381,8.7913728c.0821073,7.4659333,1.1612473,7.9644497,4.8120899,11.1167871l-.4985052.6627309Z"/>
  </g>
  <g>
    <path class="cls-5" d="M395.1828205,50.6611432l-21.9091797-11.4033203-47.0908203,1.203125-8.2724609,11.359375.015625,17.6904297,7.2148438,16.3916016,39.0058594-1.4257812c-.0839844,2.5322266-1.0878906,31.9619141-1.0878906,31.9619141l11.2783203,12.4033203c.6914062,10.7724609.6757812,22.5703125.5830078,31.6630859l-.0087891,1.1308594c-.125,1.0830078.0917969,1.3251953.2080078,1.4560547l.2529297.2568359.3173828.0009766.3505859-.0380859.3076172-.2851562.0595703-.1289062c2.984375-6.5097656,6.6103516-16.6044922,8.5585938-22.0273438l.3681641-1.0214844.7011719-10.9462891.0107422-.1044922,5.1074219-16.1025391s-1.2919922-26.9599609-1.3457031-28.0986328l4.6357422-7.9296875.7392578-26.0058594Z"/>
    <polygon class="cls-4" points="363.5082382 86.8505543 381.833013 43.5374503 371.123729 38.5397844 323.5269114 39.0157526 313.0556115 55.4366547 314.2455319 71.3815886 324.5707725 86.6565868 363.5082382 86.8505543"/>
    <path class="cls-1" d="M321.8017676,41.0025247"/>
    <path class="cls-3" d="M396.0020251,50.5465173c0-.0001834-.0126535-.4463554-.0126535-.4463554l-.3805208-.2125415-21.9069922-12.2351633s-48.2942266-1.2193169-48.2942266-1.2195002c0,.0001834-.6876881-.017238-.6876881-.017238l-.9623966.7008917c0-.0001834-12.8953731,9.852645-12.8953731,9.852645,0-.0001834-1.4424946,1.050604-1.4426779,1.0502373.0900413-.0344761-.1437727,21.1864785-.0201722,22.1600614l-.0016505,1.7503955.7637923.8890432,12.547678,15.3405794.7645258.8895933.9077483.0331924,33.8586447,1.2376552.9051809,26.6234323c0-.0001834.0357598,1.0540883.0357598,1.0540883l.6429425.5846266,12.2261776,11.1183579c-.7744285,9.141117-1.0949828,19.0909553-1.2569105,28.2777348-.0188885,1.0410681-.0374102,3.2214978-.0575824,4.2183705-.1135144,2.2502989,2.1455869,4.2403765,4.1211773,3.9660348,1.6508182-.0498803,2.9909848-1.2778162,3.4296381-2.5470134,2.6410891-8.1557975,5.9016677-14.2764279,9.0809874-22.1698037-.029158.2240946-.425103-12.06276-.5648413-12.528554l6.8279486-14.2798865s-2.3412224-29.0085952-2.7510845-29.7936599c.0839896-.0938923,5.9704387-6.8484444,5.9704387-6.8484444,0,0-.8478698-27.4489626-.8478698-27.4487793ZM385.3644474,128.7241846s-.6994246,10.8871113-.699608,10.8871113c-1.8763799,5.214693-5.7213816,16.0313851-8.8698928,22.8996471-.2796598.2591209-.1479905-.8857423-.1479905-.8857423l.013387-1.2042794c.1063624-10.4053628.0764709-21.6009252-.6002142-31.96466l-.3983089-.4379198-10.8537355-11.935148c.1784321-5.3192216,1.0788451-31.552964,1.1032351-32.4341217l-3.4490768.1261678-35.8347852,1.3097249-6.9610541-15.8149925-.015771-17.3108517,7.9309694-10.8902288c2.2330608-.0568489,46.5583184-1.1894253,46.5583184-1.1894253l21.3539076,11.1139567-.7212473,25.3810091-4.5422258,7.7684916-.1092966.1870512.0082523.173114s1.3124757,27.3857575,1.3421838,28.006694c-.1969539.6211199-5.062118,15.9620661-5.062118,15.9620661-.0339259.0577658-.0379604.1885182-.044929.2523357Z"/>
    <path class="cls-3" d="M379.6856108,89.0385294l-2.6251347.3080843-2.7608385-23.5301195c-.0174214-.1478071-.0781214-.2776426-.1349703-.408395.0121033-.0766543.0454791-.1454231.0454791-.2253783,0-.8303605-.6719171-1.5022776-1.5022776-1.5022776h-31.9008425v-4.8697487l-2.1534724,1.0359334-8.4475607,4.0635948-2.8143865,1.353737,2.8143865,1.353737,8.4475607,4.0635948,2.1534724,1.0359334v-5.0322265h30.5694783l2.6999552,23.011511-2.4626569.2890124-2.3733492.2783761,1.2798334,2.0181354,5.0203065,7.9166654,1.6724575,2.6374214,1.0166781-2.9530244,3.0515013-8.8634744.7779128-2.259468-2.3735326.2783761Z"/>
    <path class="cls-3" d="M325.3462119,60.449847c-1.6136531,0-2.9270917-1.3134386-2.9270917-2.9270917s1.3134386-2.9256483,2.9270917-2.9256483,2.9256483,1.3119952,2.9256483,2.9256483-1.3119952,2.9270917-2.9256483,2.9270917ZM325.3462119,57.5530654"/>
    <path class="cls-3" d="M340.6465658,47.9109297c-1.0988339,0-1.9922783-.8949115-1.9922783-1.9937453s.8934444-1.9937453,1.9922783-1.9937453,1.9937453.8949115,1.9937453,1.9937453-.8949115,1.9937453-1.9937453,1.9937453Z"/>
    <path class="cls-3" d="M361.484799,50.6323408c-1.0254805,0-1.8587751-.8332946-1.8587751-1.8587751s.8332946-1.8602422,1.8587751-1.8602422,1.8602422.8347617,1.8602422,1.8602422-.8347617,1.8587751-1.8602422,1.8587751Z"/>
    <path class="cls-3" d="M387.068997,58.754029c-1.6563197,0-3.0045552-1.3482354-3.0045552-3.0045552s1.3482354-3.0045552,3.0045552-3.0045552,3.0045552,1.3482354,3.0045552,3.0045552-1.3482354,3.0045552-3.0045552,3.0045552ZM387.068997,55.7480068s0,.0014671.0014671.0029341l-.0014671-.0029341Z"/>
    <path class="cls-3" d="M382.0325527,81.2016357c-1.0005403,0-1.813296-.8142227-1.813296-1.8147631s.8127556-1.8147631,1.813296-1.8147631,1.8147631.8142227,1.8147631,1.8147631-.8142227,1.8147631-1.8147631,1.8147631Z"/>
    <path class="cls-3" d="M385.1575374,110.3795072c-1.2934142,0-2.3467956-1.0516545-2.3467956-2.3450687s1.0533814-2.3467956,2.3467956-2.3467956,2.3450687,1.0533814,2.3450687,2.3467956-1.0516545,2.3450687-2.3450687,2.3450687Z"/>
    <path class="cls-3" d="M380.0696158,140.2830114c-1.0509142,0-1.9060699-.8548669-1.9060699-1.9054262,0-1.0518467.8551557-1.9067136,1.9060699-1.9067136s1.9060699.8548669,1.9060699,1.9067136c0,1.0505593-.8551557,1.9054262-1.9060699,1.9054262Z"/>
  </g>
</svg>