<?xml version="1.0" encoding="UTF-8"?>
<svg id="Ebene_1" data-name="Ebene 1" xmlns="http://www.w3.org/2000/svg" version="1.1" viewBox="0 0 425.1968504 113.3858268">
  <defs>
    <style>
      .cls-1 {
        fill: #ff5e1f;
        stroke-width: 0px;
      }
    </style>
  </defs>
  <path class="cls-1" d="M209.1770153,46.6172408c0-7.4002445,5.8017794-11.3671262,13.3777591-11.3671262,8.8815529,0,13.499122,5.3875125,13.499122,13.2606023h-7.2830838c0-3.4333629-1.0649384-6.3332031-6.2746207-6.3917855-3.0191-.0606735-6.0381841.8871081-6.0381841,4.2012112,0,8.5258684,19.5958885,7.460918,19.5958885,20.6608429,0,6.6303012-4.9146633,10.6557652-13.7941251,10.6557652-10.7750251,0-15.4511606-6.2746207-15.4511606-13.3191807h7.2809767c.0606735,3.730457,3.6718706,6.9253042,8.3480222,6.9253042,3.6112131,0,6.5110413-.7678523,6.5110413-4.2618887,0-9.1158785-19.7716357-6.7474659-19.7716357-20.3637448"/>
  <polygon class="cls-1" points="237.6477524 35.7840524 264.878219 35.7840524 264.878219 41.1108875 254.9338188 41.1108875 254.9924012 77.1643206 247.6528261 77.1643206 247.6528261 41.1108875 237.6477524 41.1108875 237.6477524 35.7840524"/>
  <path class="cls-1" d="M274.1095902,61.8311548c0,5.031832,1.2427926,9.0572961,6.4524589,9.5301413,7.5194884.6527786,12.7270956-16.3968631,14.3862382-34.1557748l10.6557373-8.1701839.2364366.3556765c-5.6239411,4.6761515-4.9732457,19.2987984-2.7826794,32.025878l-8.3459311,8.9987137h12.4885519l-5.2682327,6.747464h-17.2860823l5.9796177-6.747464h3.2555207l1.4206309-1.8348938c1.006372-6.2767118-.5314237-11.7228067-.5314237-17.938841,0-2.4855773,0-4.4983133.0585824-6.0967824-2.6048252,15.9826043-9.1744489,33.743605-18.5874414,33.743605-4.7954074,0-5.9796017-5.3289281-5.9796017-9.5908168,0-9.9444042,5.6825076-20.4223272,10.6557532-29.4210369-2.6048252,2.9605136-5.3289222,5.8017714-8.0509281,5.8017714-2.8412618,0-4.1447119-3.6718786-4.1447119-6.3938765,0-4.2033023.9477736-7.9923457,1.8955632-9.7079796l.1171648.2364206c-1.8934722,4.320475,1.006356,6.2160383,3.6111972,6.2160383,7.8731058,0,10.8336074-3.0797735,14.3276398-3.0797735v.3556765c-7.3416502,0-14.5640605,23.26568-14.5640605,29.1260378"/>
  <polygon class="cls-1" points="338.3944227 75.3880132 338.3944227 35.72547 346.0310759 35.72547 345.5582346 77.1643226 331.9419637 77.1643226 316.2543665 38.4474679 315.8401076 77.1643226 308.6762957 77.1643226 308.6762957 35.72547 322.3511489 35.72547 338.3944227 75.3880132"/>
  <g>
    <path class="cls-1" d="M368.1644278,55.0232189c0-12.5492374-2.6634076-14.0305377-7.1617049-13.9719593h-4.3225821v30.7851804h1.3034661c9.5887397.1171648,10.1808209-10.8942769,10.1808209-16.8132211M349.3991641,35.7244245h12.19564c8.7602219,0,13.8527075,3.730461,13.8527075,17.2860664,0,10.8921858-3.2555207,24.272044-17.5245621,24.1527842h-8.5237853v-41.4388506Z"/>
    <path class="cls-1" d="M408.357373,33.5344807c1.006372,1.5984691,2.012744,5.2682567,2.012744,9.2351343,0,2.6634195-.6506955,6.1553608-3.1383559,6.1553608-4.4397469,0-6.9839145-12.3128127-15.214756-12.3128127-2.0106369,0-8.2873487.8891992-6.3918014,8.4066086,3.0776984,12.3128167,18.4702766,4.025464,18.4702766,8.9401313,0,3.1362608-6.0382,1.0649464-9.0572841,1.006364-6.0988895-.1192559-9.2958277,6.7474659-5.8017634,12.2542343,6.4524589,10.1222425,17.7588917,11.0093506,20.4829887,5.029737,3.0776664-6.7474659-10.0636561-8.3459351-10.9528633-5.2075792-.2364366.9456905-.1778542,1.4792133.9477896,2.7805843l-.2970941.1778422c-3.1362808-3.1969383-6.2746366-8.9380402-4.6175692-11.0093546,4.0254561-5.0925055,19.4180343,3.0191,15.6290148,13.3777671-3.7283939,10.1222425-33.4465209,8.5844468-33.4465209-7.1031464,0-12.490659,18.2317649-11.3064487,21.6065255-11.3064487v-.3556845c-3.0776664-.1192559-20.95583-.8285258-20.95583-11.7207116,0-3.0211871,1.3620485-8.8208754,7.9316722-8.8208754,8.2894238-.0606735,12.906993,7.4588309,18.7673707,7.4588309,2.7219899,0,5.2682327-3.8497169,3.7890194-6.9273993l.2364366-.0585824Z"/>
  </g>
  <polygon class="cls-1" points="88.1086574 71.7905791 113.0836941 71.7905791 113.0836941 77.1174141 80.8883462 77.1174141 80.8883462 35.689027 112.9058559 35.689027 112.9058559 41.013767 88.1672398 41.013767 88.1672398 53.7387555 112.9058559 53.7387555 112.9058559 59.0655946 88.1672398 59.0655946 88.1086574 71.7905791"/>
  <g>
    <path class="cls-1" d="M113.7975692,45.6903375l9.4108855-9.9423131,33.9109738-.0585824c1.9541456.8285258,3.4333589,2.8998442,3.4333589,4.4376398,0,3.1969343-2.5441517,5.32474-5.2661576,7.6345701-6.9838826,4.9711546-13.8506084,8.343844-15.6834071,8.343844l-4.8539898.0606735c.9456905,7.6931565,13.9091908,19.4724525,20.5373969,14.9720501,2.7220059-1.8327987,4.2012192-4.318376,5.4440118-6.331112l.4142589.2364246c-1.5984691,2.6634195-3.314103,5.0297409-5.326847,6.7474659-2.8998282,2.4855773-10.1201474,6.6867885-11.4821879,6.6867885-5.1469097,0-14.4406224-11.5993607-14.4406224-17.1626204,0-1.4206309,6.3917855-8.7581069,9.8251444-11.7186205,1.5398867,0,2.1905743.0606735,3.6697875,0,6.6282061,0,7.1010474.6506835,9.4694679-1.1842063,3.6091061-2.7805843-1.5984691-6.1553648-4.6761515-5.9775226l-18.9389357.1171648-2.012728,1.7763114c.1192559,8.1095105,5.0904104,31.3103288-6.7474699,32.787449h-10.1180563l.1171648-.5314297,5.1489928-.1171648c7.1031464,0,5.6825156-22.6087173,5.2682567-27.3434472l7.5759877-6.5717188-6.2746127.0606735c-5.3268391.0585824-5.6825235.8285258-7.9316722,3.4333629l-.4728493-.3556805Z"/>
    <path class="cls-1" d="M173.9585927,80.9778019l-9.9423091-9.4108855-.0585824-33.9109738c.8285178-1.9541536,2.8998442-3.4333669,4.4376398-3.4333669,3.1969383,0,5.32474,2.5441597,7.6345621,5.2661656,4.9711546,6.9838826,8.34384,13.8506084,8.34384,15.6834071l.0606735,4.8539898c7.6931605-.9456905,19.4724664-13.9091948,14.9720621-20.5373969-1.8327987-2.7220059-4.318384-4.2012192-6.331112-5.4440038l.2364206-.4142669c2.6634235,1.5984691,5.029737,3.314103,6.747462,5.3268391,2.4855853,2.8998402,6.6867885,10.1201514,6.6867885,11.4821959,0,5.1469057-11.5993607,14.4406224-17.1626124,14.4406224-1.4206309,0-8.7581149-6.3917855-11.7186325-9.8251444,0-1.5398867.0606894-2.1905743,0-3.6697875,0-6.6282061.6506955-7.1010514-1.1841943-9.4694639-2.7805883-3.6091101-6.1553648,1.5984691-5.9775266,4.6761515l.1171648,18.9389317,1.7763074,2.012732c8.1095105-.1192599,31.3103388-5.0904144,32.787445,6.747464v10.1180603l-.5314237-.1171668-.1171648-5.1489948c0-7.1031444-22.6087153-5.6825176-27.3434492-5.2661636l-6.5717148-7.5759877.0606735,6.2725256c.0585824,5.3268371.8285337,5.6825176,3.4333589,7.9316722l-.3556765.4728453Z"/>
  </g>
  <path class="cls-1" d="M29.2720189,32.315288l-4.8539898,3.2555207c-2.0106404,1.6570515-2.0713154,3.5505237-2.0713154,4.9104811,0,12.1328834,29.0004977,15.9805092,29.0004977,28.2305573,0,9.1158785-16.3340946,14.38204-23.6736617,14.38204-8.9966206,0-17.8739833-8.8773627-11.1265174-17.1019469l12.5471463-6.6303012.4142629.4728453c-4.7347329,2.2491566-6.8060483,5.2682527-6.8060483,9.3522991,0,11.2436842,22.3722926,15.2691482,22.3722926,4.2012152,0-15.2105658-28.5276535-12.6057327-28.5276535-28.9398272,0-5.3268391,9.1137854-10.1201474,12.9614092-12.6664061,5.5046753,12.1914698,14.1456174,12.9614131,15.8026689,2.2491566h.4142629l-2.307739,15.3884041c-4.8539898,0-10.2979916-.7699434-13.1392494-4.9125722-1.9541496-2.8998402-2.9605156-7.8730898-1.006366-12.1914658"/>
  <path class="cls-1" d="M64.6092784,52.0222836c3.9647866,0,6.8060483-.8871081,6.8060483-5.3854174,0-4.4397269-2.8412618-5.3854174-6.8060483-5.3268351h-4.6761515v10.7122525h4.6761515ZM59.8745444,77.1165781h-7.2203112v-41.4283891h11.9550451c7.337476,0,14.0849419,2.2491566,14.0849419,10.5950877,0,7.632483-5.6218421,11.36294-14.0849419,11.36294h-4.6761515l-.0585824,19.4703614Z"/>
</svg>